<svg width="1203" height="1203" viewBox="0 0 1203 1203" fill="none" xmlns="http://www.w3.org/2000/svg">
<rect width="1203" height="1203" fill="#F7DF1E"/>
<path d="M438.124 1066.31C414.991 1066.31 394.942 1062.45 377.978 1054.74C361.014 1047.03 347.905 1036.08 338.652 1021.89C329.707 1007.39 325.08 990.43 324.772 970.998H382.604C382.604 984.878 387.539 995.828 397.41 1003.85C407.588 1011.56 421.314 1015.41 438.586 1015.41C455.242 1015.41 468.196 1011.56 477.45 1003.85C487.011 996.136 491.792 985.495 491.792 971.924C491.792 960.511 488.399 950.641 481.614 942.314C475.136 933.677 465.729 927.817 453.391 924.732L414.528 914.091C388.002 907.306 367.491 895.122 352.994 877.541C338.806 859.96 331.712 838.678 331.712 813.694C331.712 794.571 336.03 777.915 344.666 763.727C353.303 749.539 365.486 738.589 381.216 730.878C397.255 723.167 416.07 719.312 437.661 719.312C470.356 719.312 496.264 727.794 515.388 744.758C534.511 761.414 544.227 783.93 544.535 812.306H486.703C486.703 799.043 482.385 788.711 473.748 781.308C465.112 773.597 452.929 769.742 437.198 769.742C422.085 769.742 410.364 773.289 402.036 780.383C393.708 787.477 389.544 797.501 389.544 810.456C389.544 822.176 392.629 832.201 398.798 840.528C405.275 848.548 414.528 854.254 426.557 857.647L466.808 868.751C493.643 875.536 514.154 887.72 528.342 905.301C542.53 922.573 549.625 944.01 549.625 969.61C549.625 988.734 544.998 1005.7 535.745 1020.5C526.492 1035 513.537 1046.26 496.881 1054.28C480.226 1062.3 460.64 1066.31 438.124 1066.31ZM700.733 1066.77C666.497 1066.77 639.354 1057.36 619.305 1038.55C599.565 1019.42 589.695 993.823 589.695 961.745H647.528C647.528 978.709 652.308 991.972 661.87 1001.53C671.432 1011.1 684.386 1015.88 700.733 1015.88C717.081 1015.88 730.035 1011.25 739.597 1002C749.158 992.435 753.939 979.172 753.939 962.208V777.607H675.287V723.938H811.772V962.208C811.772 994.594 801.747 1020.19 781.699 1039.01C761.959 1057.52 734.97 1066.77 700.733 1066.77ZM982.312 1065.84C962.881 1065.84 945.916 1062.76 931.42 1056.59C916.923 1050.42 905.511 1041.94 897.183 1031.14C889.164 1020.04 884.845 1007.09 884.229 992.281H942.061C942.678 1000.3 946.533 1006.78 953.627 1011.71C961.03 1016.65 970.592 1019.12 982.312 1019.12H1002.67C1016.86 1019.12 1027.5 1016.34 1034.59 1010.79C1041.69 1005.24 1045.23 997.678 1045.23 988.117C1045.23 979.172 1042 972.232 1035.52 967.297C1029.35 962.054 1019.63 958.661 1006.37 957.119L974.91 952.492C945.916 948.482 924.634 940.771 911.063 929.359C897.491 917.947 890.706 900.828 890.706 878.004C890.706 854.254 898.725 835.902 914.764 822.947C930.803 809.684 954.399 803.053 985.551 803.053H1003.13C1031.51 803.053 1054.18 809.376 1071.14 822.022C1088.11 834.668 1097.21 851.632 1098.44 872.915H1040.61C1039.68 866.129 1035.83 860.577 1029.04 856.259C1022.56 851.941 1013.93 849.782 1003.13 849.782H985.551C972.288 849.782 962.572 852.249 956.403 857.184C950.543 861.811 947.613 868.751 947.613 878.004C947.613 886.64 950.235 893.117 955.478 897.436C960.722 901.445 969.204 904.375 980.924 906.226L1013.77 910.853C1044 915.171 1066.21 923.344 1080.4 935.374C1094.89 947.094 1102.14 964.521 1102.14 987.654C1102.14 1012.33 1093.66 1031.61 1076.69 1045.49C1060.04 1059.06 1035.36 1065.84 1002.67 1065.84H982.312Z" fill="black"/>
</svg>
